# xmcd
#
# Track frame offsets:
#	150
#	22393
#	44234
#	62700
#	82802
#	103311
#	117739
#	139314
#	161523
#	188597
#	217115
#	237485
#	269384
#	288352
#	308176
#	327776
#
# Disc length: 4657 seconds
#
# Revision: 0
# Processed by: cddbd v1.5.2PL0 Copyright (c) Steve Scherf et al.
# Submitted via: audiograbber 1.83.01
#
DISCID=fd122f10
DTITLE=Mad Mark - Housworks- Sunlight Beach Party Vol2 CD2-Lounge Tunes
DYEAR=2012
DGENRE=House
TTITLE0=Rene Rodrigezz vs. DJ Antoine feat. MC Yankoo - Shake 3x
TTITLE1=DJ Antoine vs. Mad Mark and Scotty G - Come Baby Come
TTITLE2=DJ Antoine vs. Mad Mark feat. Michael von der Heide - Bleu Infini
TTITLE3=Timati and P.Diddi, DJ Antoine, Dirty Money - I'm On You
TTITLE4=DJ Antoine feat. Tom Dice - Sunlight
TTITLE5=DJ Antoine vs. Mad Mark and Skotty G - Stainless
TTITLE6=DJ Antoine - Beautiful
TTITLE7=Black Shadow - Can You Stand The Funk
TTITLE8=DJ Prom - Afrodynamix
TTITLE9=Marchi's Flow vs. Love feat. Miss Tia - Feel The Love
TTITLE10=DJ Antoine - In My Dreams
TTITLE11=Mambana - Felicidad
TTITLE12=Mad Mark - Another Day
TTITLE13=Syke'N'Sugarstarr feat. Bonny Ferrer - Toda a Minha Vida
TTITLE14=Global Brothers - Fantasy
TTITLE15=DJ Antoine - It Doesn't Hurt To Try
EXTD=
EXTT0=
EXTT1=
EXTT2=
EXTT3=
EXTT4=
EXTT5=
EXTT6=
EXTT7=
EXTT8=
EXTT9=
EXTT10=
EXTT11=
EXTT12=
EXTT13=
EXTT14=
EXTT15=
PLAYORDER=
